<?xml version="1.0" standalone="no"?>
<!DOCTYPE svg PUBLIC "-//W3C//DTD SVG 20010904//EN"
 "http://www.w3.org/TR/2001/REC-SVG-20010904/DTD/svg10.dtd">
<svg version="1.0" xmlns="http://www.w3.org/2000/svg"
 width="201.000000pt" height="201.000000pt" viewBox="0 0 201.000000 201.000000"
 preserveAspectRatio="xMidYMid meet">
<metadata>
Created by potrace 1.11, written by Peter Selinger 2001-2013
</metadata>
<g transform="translate(0.000000,201.000000) scale(0.100000,-0.100000)"
fill="#000000" stroke="none">
<path d="M497 1363 l-497 -498 62 -62 63 -62 438 435 439 435 93 -88 c51 -48
250 -244 441 -435 l349 -348 63 63 62 62 -495 495 c-272 272 -501 496 -508
498 -6 1 -236 -222 -510 -495z"/>
<path d="M690 600 l0 -280 -125 0 -125 0 0 265 c0 146 -4 265 -8 265 -5 0 -45
-38 -90 -84 l-82 -84 0 -271 0 -271 305 0 305 0 0 280 0 280 135 0 135 0 0
-280 0 -280 305 0 305 0 0 271 0 272 -90 91 -90 91 0 -272 0 -273 -125 0 -125
0 0 280 0 280 -315 0 -315 0 0 -280z"/>
</g>
</svg>
